<svg width="1340" height="50" viewBox="0 0 1340 50" fill="none" xmlns="http://www.w3.org/2000/svg">
<rect width="1340" height="50" fill="#F8F9FD"/>
<g clip-path="url(#clip0_1368_707)">
<path d="M25 25.5C27.4844 25.5 29.5 23.4844 29.5 21C29.5 18.5156 27.4844 16.5 25 16.5C22.5156 16.5 20.5 18.5156 20.5 21C20.5 23.4844 22.5156 25.5 25 25.5ZM29 26.5H27.2781C26.5844 26.8188 25.8125 27 25 27C24.1875 27 23.4188 26.8188 22.7219 26.5H21C18.7906 26.5 17 28.2906 17 30.5V31C17 31.8281 17.6719 32.5 18.5 32.5H31.5C32.3281 32.5 33 31.8281 33 31V30.5C33 28.2906 31.2094 26.5 29 26.5Z" fill="#40464C"/>
</g>
<path d="M51.3366 19.8182V30H49.9247L44.7493 22.5327H44.6548V30H43.1186V19.8182H44.5405L49.7209 27.2955H49.8153V19.8182H51.3366ZM55.6806 30.169C55.1967 30.169 54.7592 30.0795 54.3681 29.9006C53.977 29.7183 53.6671 29.4548 53.4384 29.1101C53.213 28.7654 53.1003 28.3428 53.1003 27.8423C53.1003 27.4115 53.1832 27.0568 53.3489 26.7784C53.5146 26.5 53.7383 26.2796 54.0201 26.1172C54.3018 25.9548 54.6167 25.8321 54.9647 25.7493C55.3127 25.6664 55.6673 25.6035 56.0286 25.5604C56.486 25.5073 56.8572 25.4643 57.1422 25.4311C57.4273 25.3946 57.6344 25.3366 57.7637 25.2571C57.8929 25.1776 57.9576 25.0483 57.9576 24.8693V24.8345C57.9576 24.4003 57.8349 24.0639 57.5897 23.8253C57.3477 23.5866 56.9864 23.4673 56.5059 23.4673C56.0054 23.4673 55.611 23.5784 55.3226 23.8004C55.0376 24.0192 54.8404 24.2628 54.731 24.5312L53.334 24.2131C53.4997 23.7491 53.7417 23.3745 54.0598 23.0895C54.3813 22.8011 54.7509 22.5923 55.1685 22.4631C55.5861 22.3305 56.0253 22.2642 56.486 22.2642C56.7909 22.2642 57.1141 22.3007 57.4554 22.3736C57.8001 22.4432 58.1216 22.5724 58.4199 22.7614C58.7215 22.9503 58.9685 23.2204 59.1607 23.5717C59.3529 23.9197 59.449 24.3722 59.449 24.929V30H57.9973V28.956H57.9377C57.8416 29.1482 57.6974 29.3371 57.5051 29.5227C57.3129 29.7083 57.066 29.8625 56.7644 29.9851C56.4628 30.1077 56.1015 30.169 55.6806 30.169ZM56.0037 28.9759C56.4147 28.9759 56.766 28.8946 57.0577 28.7322C57.3527 28.5698 57.5764 28.3577 57.7289 28.0959C57.8846 27.8307 57.9625 27.5473 57.9625 27.2457V26.2614C57.9095 26.3144 57.8068 26.3641 57.6543 26.4105C57.5051 26.4536 57.3345 26.4917 57.1422 26.5249C56.95 26.5547 56.7627 26.5829 56.5804 26.6094C56.3981 26.6326 56.2457 26.6525 56.123 26.669C55.8347 26.7055 55.5712 26.7668 55.3326 26.853C55.0972 26.9392 54.9083 27.0634 54.7658 27.2259C54.6266 27.3849 54.557 27.5971 54.557 27.8622C54.557 28.2301 54.6929 28.5085 54.9647 28.6974C55.2364 28.883 55.5828 28.9759 56.0037 28.9759ZM61.429 30V22.3636H62.8558V23.6065H62.9503C63.1094 23.1856 63.3696 22.8575 63.7308 22.6222C64.0921 22.3835 64.5246 22.2642 65.0284 22.2642C65.5388 22.2642 65.9664 22.3835 66.3111 22.6222C66.6591 22.8608 66.916 23.1889 67.0817 23.6065H67.1612C67.3435 23.1989 67.6335 22.8741 68.0312 22.6321C68.429 22.3868 68.9029 22.2642 69.4531 22.2642C70.1458 22.2642 70.7109 22.4813 71.1484 22.9155C71.5893 23.3497 71.8097 24.0043 71.8097 24.8793V30H70.3232V25.0185C70.3232 24.5014 70.1823 24.1269 69.9006 23.8949C69.6188 23.6629 69.2824 23.5469 68.8913 23.5469C68.4074 23.5469 68.0312 23.696 67.7628 23.9943C67.4943 24.2893 67.3601 24.6688 67.3601 25.1328V30H65.8786V24.924C65.8786 24.5097 65.7493 24.1766 65.4908 23.9247C65.2322 23.6728 64.8958 23.5469 64.4815 23.5469C64.1998 23.5469 63.9396 23.6214 63.701 23.7706C63.4657 23.9164 63.2751 24.1203 63.1293 24.3821C62.9867 24.6439 62.9155 24.9472 62.9155 25.2919V30H61.429ZM77.0932 30.1541C76.3408 30.1541 75.6929 29.9934 75.1493 29.6719C74.6091 29.3471 74.1915 28.8913 73.8965 28.3047C73.6048 27.7147 73.459 27.0237 73.459 26.2315C73.459 25.4493 73.6048 24.7599 73.8965 24.1634C74.1915 23.5668 74.6025 23.1011 75.1294 22.7663C75.6597 22.4316 76.2795 22.2642 76.9888 22.2642C77.4197 22.2642 77.8373 22.3355 78.2417 22.478C78.646 22.6205 79.0089 22.8442 79.3304 23.1491C79.6519 23.4541 79.9055 23.8501 80.0911 24.3374C80.2767 24.8213 80.3695 25.4096 80.3695 26.1023V26.6293H74.2992V25.5156H78.9128C78.9128 25.1245 78.8333 24.7782 78.6742 24.4766C78.5151 24.1716 78.2914 23.9313 78.003 23.7557C77.718 23.58 77.3832 23.4922 76.9988 23.4922C76.5811 23.4922 76.2166 23.5949 75.905 23.8004C75.5968 24.0026 75.3581 24.2678 75.1891 24.5959C75.0234 24.9207 74.9405 25.2737 74.9405 25.6548V26.5249C74.9405 27.0353 75.03 27.4695 75.209 27.8274C75.3913 28.1854 75.6448 28.4588 75.9696 28.6477C76.2944 28.8333 76.6739 28.9261 77.1081 28.9261C77.3899 28.9261 77.6467 28.8864 77.8787 28.8068C78.1107 28.724 78.3113 28.6013 78.4803 28.4389C78.6493 28.2765 78.7786 28.076 78.8681 27.8374L80.275 28.0909C80.1623 28.5052 79.9602 28.8681 79.6685 29.1797C79.3801 29.4879 79.0172 29.7282 78.5797 29.9006C78.1455 30.0696 77.65 30.1541 77.0932 30.1541Z" fill="#40464C"/>
<line y1="49.35" x2="400" y2="49.35" stroke="#D5DBE1" stroke-width="1.3"/>
<g clip-path="url(#clip1_1368_707)">
<path d="M429 21.8333H428.333V20.5C428.333 18.66 426.84 17.1667 425 17.1667C423.16 17.1667 421.667 18.66 421.667 20.5V21.8333H421C420.267 21.8333 419.667 22.4333 419.667 23.1667V29.8333C419.667 30.5667 420.267 31.1667 421 31.1667H429C429.733 31.1667 430.333 30.5667 430.333 29.8333V23.1667C430.333 22.4333 429.733 21.8333 429 21.8333ZM425 27.8333C424.267 27.8333 423.667 27.2333 423.667 26.5C423.667 25.7667 424.267 25.1667 425 25.1667C425.733 25.1667 426.333 25.7667 426.333 26.5C426.333 27.2333 425.733 27.8333 425 27.8333ZM427.067 21.8333H422.933V20.5C422.933 19.36 423.86 18.4333 425 18.4333C426.14 18.4333 427.067 19.36 427.067 20.5V21.8333Z" fill="#40464C"/>
</g>
<path d="M449.467 19.8182V21.1406H444.655V30H443.119V19.8182H449.467ZM453.189 30.1541C452.473 30.1541 451.848 29.9901 451.314 29.6619C450.781 29.3338 450.366 28.8748 450.071 28.2848C449.776 27.6948 449.629 27.0054 449.629 26.2166C449.629 25.4245 449.776 24.7318 450.071 24.1385C450.366 23.5452 450.781 23.0845 451.314 22.7564C451.848 22.4283 452.473 22.2642 453.189 22.2642C453.904 22.2642 454.529 22.4283 455.063 22.7564C455.596 23.0845 456.011 23.5452 456.306 24.1385C456.601 24.7318 456.748 25.4245 456.748 26.2166C456.748 27.0054 456.601 27.6948 456.306 28.2848C456.011 28.8748 455.596 29.3338 455.063 29.6619C454.529 29.9901 453.904 30.1541 453.189 30.1541ZM453.194 28.9062C453.658 28.9062 454.042 28.7836 454.347 28.5384C454.652 28.2931 454.877 27.9666 455.023 27.5589C455.172 27.1513 455.247 26.7022 455.247 26.2116C455.247 25.7244 455.172 25.277 455.023 24.8693C454.877 24.4583 454.652 24.1286 454.347 23.88C454.042 23.6314 453.658 23.5071 453.194 23.5071C452.726 23.5071 452.338 23.6314 452.03 23.88C451.725 24.1286 451.498 24.4583 451.349 24.8693C451.203 25.277 451.13 25.7244 451.13 26.2116C451.13 26.7022 451.203 27.1513 451.349 27.5589C451.498 27.9666 451.725 28.2931 452.03 28.5384C452.338 28.7836 452.726 28.9062 453.194 28.9062ZM458.407 32.8636V22.3636H459.859V23.6016H459.983C460.07 23.4425 460.194 23.2585 460.356 23.0497C460.519 22.8409 460.744 22.6586 461.032 22.5028C461.321 22.3438 461.702 22.2642 462.176 22.2642C462.792 22.2642 463.343 22.42 463.827 22.7315C464.31 23.0431 464.69 23.4922 464.965 24.0788C465.243 24.6655 465.383 25.3714 465.383 26.1967C465.383 27.022 465.245 27.7296 464.97 28.3196C464.695 28.9062 464.317 29.3587 463.836 29.6768C463.356 29.9917 462.807 30.1491 462.191 30.1491C461.727 30.1491 461.347 30.0713 461.052 29.9155C460.761 29.7597 460.532 29.5774 460.366 29.3686C460.201 29.1598 460.073 28.9742 459.983 28.8118H459.894V32.8636H458.407ZM459.864 26.1818C459.864 26.7187 459.942 27.1894 460.098 27.5938C460.254 27.9981 460.479 28.3146 460.774 28.5433C461.069 28.7687 461.43 28.8814 461.858 28.8814C462.302 28.8814 462.673 28.7637 462.971 28.5284C463.27 28.2898 463.495 27.9666 463.648 27.5589C463.803 27.1513 463.881 26.6922 463.881 26.1818C463.881 25.678 463.805 25.2256 463.653 24.8246C463.503 24.4235 463.278 24.107 462.976 23.875C462.678 23.643 462.305 23.527 461.858 23.527C461.427 23.527 461.062 23.638 460.764 23.8601C460.469 24.0821 460.245 24.392 460.093 24.7898C459.94 25.1875 459.864 25.6515 459.864 26.1818ZM470.265 30.1541C469.549 30.1541 468.924 29.9901 468.39 29.6619C467.857 29.3338 467.443 28.8748 467.148 28.2848C466.853 27.6948 466.705 27.0054 466.705 26.2166C466.705 25.4245 466.853 24.7318 467.148 24.1385C467.443 23.5452 467.857 23.0845 468.39 22.7564C468.924 22.4283 469.549 22.2642 470.265 22.2642C470.981 22.2642 471.605 22.4283 472.139 22.7564C472.673 23.0845 473.087 23.5452 473.382 24.1385C473.677 24.7318 473.824 25.4245 473.824 26.2166C473.824 27.0054 473.677 27.6948 473.382 28.2848C473.087 28.8748 472.673 29.3338 472.139 29.6619C471.605 29.9901 470.981 30.1541 470.265 30.1541ZM470.27 28.9062C470.734 28.9062 471.118 28.7836 471.423 28.5384C471.728 28.2931 471.953 27.9666 472.099 27.5589C472.248 27.1513 472.323 26.7022 472.323 26.2116C472.323 25.7244 472.248 25.277 472.099 24.8693C471.953 24.4583 471.728 24.1286 471.423 23.88C471.118 23.6314 470.734 23.5071 470.27 23.5071C469.802 23.5071 469.415 23.6314 469.106 23.88C468.801 24.1286 468.574 24.4583 468.425 24.8693C468.279 25.277 468.206 25.7244 468.206 26.2116C468.206 26.7022 468.279 27.1513 468.425 27.5589C468.574 27.9666 468.801 28.2931 469.106 28.5384C469.415 28.7836 469.802 28.9062 470.27 28.9062ZM474.738 32.2024V28.7124H475.359C475.518 28.5665 475.653 28.3925 475.762 28.1903C475.875 27.9882 475.969 27.7479 476.045 27.4695C476.125 27.1911 476.191 26.8662 476.244 26.495C476.297 26.1205 476.344 25.6929 476.384 25.2124L476.622 22.3636H481.812V28.7124H482.986V32.2024H481.534V30H476.21V32.2024H474.738ZM476.95 28.7124H480.361V23.6364H477.955L477.795 25.2124C477.719 26.0144 477.623 26.7105 477.507 27.3004C477.391 27.8871 477.205 28.3577 476.95 28.7124Z" fill="#40464C"/>
<line x1="400" y1="49.35" x2="692" y2="49.35" stroke="#D5DBE1" stroke-width="1.3"/>
<g clip-path="url(#clip2_1368_707)">
<path d="M716.667 18.3333C713 18.3333 710 21.3333 710 25C710 28.6667 713 31.6667 716.667 31.6667C720.333 31.6667 723.333 28.6667 723.333 25C723.333 21.3333 720.333 18.3333 716.667 18.3333ZM719.467 27.8L716 25.6667V21.6667H717V25.1333L720 26.9333L719.467 27.8Z" fill="#40464C"/>
</g>
<path d="M740.339 22.9929C740.285 22.5223 740.067 22.1577 739.682 21.8991C739.298 21.6373 738.814 21.5064 738.231 21.5064C737.813 21.5064 737.452 21.5727 737.147 21.7053C736.842 21.8345 736.605 22.0135 736.436 22.2422C736.27 22.4676 736.187 22.7244 736.187 23.0128C736.187 23.2547 736.244 23.4635 736.356 23.6392C736.472 23.8149 736.623 23.9624 736.809 24.0817C736.998 24.1977 737.2 24.2955 737.415 24.375C737.631 24.4512 737.838 24.5142 738.037 24.5639L739.031 24.8224C739.356 24.902 739.689 25.0097 740.03 25.1456C740.372 25.2815 740.688 25.4605 740.98 25.6825C741.272 25.9046 741.507 26.1797 741.686 26.5078C741.868 26.8359 741.959 27.2287 741.959 27.6861C741.959 28.2628 741.81 28.7749 741.512 29.2223C741.217 29.6697 740.788 30.0227 740.224 30.2812C739.664 30.5398 738.986 30.669 738.191 30.669C737.428 30.669 736.769 30.5481 736.212 30.3061C735.655 30.0642 735.219 29.7211 734.905 29.277C734.59 28.8295 734.416 28.2992 734.383 27.6861H735.924C735.954 28.054 736.073 28.3606 736.282 28.6058C736.494 28.8478 736.764 29.0284 737.092 29.1477C737.423 29.2637 737.786 29.3217 738.181 29.3217C738.615 29.3217 739.001 29.2538 739.339 29.1179C739.681 28.9787 739.949 28.7865 740.145 28.5412C740.34 28.2926 740.438 28.0026 740.438 27.6712C740.438 27.3696 740.352 27.1226 740.179 26.9304C740.01 26.7382 739.78 26.5791 739.488 26.4531C739.2 26.3272 738.874 26.2161 738.509 26.12L737.306 25.7919C736.49 25.5698 735.844 25.2434 735.367 24.8125C734.893 24.3816 734.656 23.8116 734.656 23.1023C734.656 22.5156 734.815 22.0036 735.133 21.5661C735.451 21.1286 735.882 20.7888 736.426 20.5469C736.969 20.3016 737.583 20.179 738.265 20.179C738.955 20.179 739.563 20.3 740.09 20.5419C740.62 20.7839 741.038 21.117 741.343 21.5412C741.648 21.9621 741.807 22.446 741.82 22.9929H740.339ZM747.24 22.8636V24.0568H743.069V22.8636H747.24ZM744.188 21.0341H745.674V28.2578C745.674 28.5462 745.717 28.7633 745.804 28.9091C745.89 29.0516 746.001 29.1494 746.137 29.2024C746.276 29.2521 746.427 29.277 746.589 29.277C746.708 29.277 746.813 29.2687 746.902 29.2521C746.992 29.2356 747.061 29.2223 747.111 29.2124L747.38 30.4403C747.293 30.4735 747.171 30.5066 747.012 30.5398C746.853 30.5762 746.654 30.5961 746.415 30.5994C746.024 30.6061 745.659 30.5365 745.321 30.3906C744.983 30.2448 744.71 30.0194 744.501 29.7145C744.292 29.4096 744.188 29.0268 744.188 28.5661V21.0341ZM751.107 30.669C750.623 30.669 750.186 30.5795 749.794 30.4006C749.403 30.2183 749.093 29.9548 748.865 29.6101C748.639 29.2654 748.527 28.8428 748.527 28.3423C748.527 27.9115 748.61 27.5568 748.775 27.2784C748.941 27 749.165 26.7796 749.446 26.6172C749.728 26.4548 750.043 26.3321 750.391 26.2493C750.739 26.1664 751.094 26.1035 751.455 26.0604C751.912 26.0073 752.284 25.9643 752.569 25.9311C752.854 25.8946 753.061 25.8366 753.19 25.7571C753.319 25.6776 753.384 25.5483 753.384 25.3693V25.3345C753.384 24.9003 753.261 24.5639 753.016 24.3253C752.774 24.0866 752.413 23.9673 751.932 23.9673C751.432 23.9673 751.037 24.0784 750.749 24.3004C750.464 24.5192 750.267 24.7628 750.157 25.0312L748.76 24.7131C748.926 24.2491 749.168 23.8745 749.486 23.5895C749.808 23.3011 750.177 23.0923 750.595 22.9631C751.013 22.8305 751.452 22.7642 751.912 22.7642C752.217 22.7642 752.54 22.8007 752.882 22.8736C753.227 22.9432 753.548 23.0724 753.846 23.2614C754.148 23.4503 754.395 23.7204 754.587 24.0717C754.779 24.4197 754.875 24.8722 754.875 25.429V30.5H753.424V29.456H753.364C753.268 29.6482 753.124 29.8371 752.932 30.0227C752.739 30.2083 752.492 30.3625 752.191 30.4851C751.889 30.6077 751.528 30.669 751.107 30.669ZM751.43 29.4759C751.841 29.4759 752.192 29.3946 752.484 29.2322C752.779 29.0698 753.003 28.8577 753.155 28.5959C753.311 28.3307 753.389 28.0473 753.389 27.7457V26.7614C753.336 26.8144 753.233 26.8641 753.081 26.9105C752.932 26.9536 752.761 26.9917 752.569 27.0249C752.376 27.0547 752.189 27.0829 752.007 27.1094C751.825 27.1326 751.672 27.1525 751.549 27.169C751.261 27.2055 750.998 27.2668 750.759 27.353C750.524 27.4392 750.335 27.5634 750.192 27.7259C750.053 27.8849 749.983 28.0971 749.983 28.3622C749.983 28.7301 750.119 29.0085 750.391 29.1974C750.663 29.383 751.009 29.4759 751.43 29.4759ZM760.42 22.8636V24.0568H756.249V22.8636H760.42ZM757.367 21.0341H758.854V28.2578C758.854 28.5462 758.897 28.7633 758.983 28.9091C759.069 29.0516 759.18 29.1494 759.316 29.2024C759.456 29.2521 759.606 29.277 759.769 29.277C759.888 29.277 759.992 29.2687 760.082 29.2521C760.171 29.2356 760.241 29.2223 760.291 29.2124L760.559 30.4403C760.473 30.4735 760.35 30.5066 760.191 30.5398C760.032 30.5762 759.833 30.5961 759.595 30.5994C759.204 30.6061 758.839 30.5365 758.501 30.3906C758.163 30.2448 757.889 30.0194 757.681 29.7145C757.472 29.4096 757.367 29.0268 757.367 28.5661V21.0341ZM766.902 27.3331V22.8636H768.393V30.5H766.932V29.1776H766.852C766.676 29.5852 766.395 29.925 766.007 30.1967C765.622 30.4652 765.143 30.5994 764.57 30.5994C764.08 30.5994 763.645 30.4917 763.267 30.2763C762.893 30.0575 762.598 29.7344 762.383 29.3068C762.17 28.8793 762.064 28.3506 762.064 27.7209V22.8636H763.551V27.5419C763.551 28.0623 763.695 28.4766 763.983 28.7848C764.272 29.093 764.646 29.2472 765.107 29.2472C765.385 29.2472 765.662 29.1776 765.937 29.0384C766.216 28.8991 766.446 28.6887 766.628 28.407C766.814 28.1252 766.905 27.7673 766.902 27.3331ZM776.113 24.728L774.766 24.9666C774.709 24.7943 774.62 24.6302 774.497 24.4744C774.378 24.3187 774.215 24.1911 774.01 24.0916C773.804 23.9922 773.547 23.9425 773.239 23.9425C772.818 23.9425 772.467 24.0369 772.185 24.2259C771.904 24.4115 771.763 24.6518 771.763 24.9467C771.763 25.2019 771.857 25.4074 772.046 25.5632C772.235 25.719 772.54 25.8466 772.961 25.946L774.174 26.2244C774.877 26.3868 775.4 26.6371 775.745 26.9751C776.09 27.3132 776.262 27.7524 776.262 28.2926C776.262 28.75 776.129 29.1577 775.864 29.5156C775.602 29.8703 775.236 30.1487 774.766 30.3509C774.298 30.553 773.756 30.6541 773.14 30.6541C772.285 30.6541 771.587 30.4718 771.047 30.1072C770.507 29.7393 770.175 29.2173 770.052 28.5412L771.489 28.3224C771.579 28.697 771.763 28.9804 772.041 29.1726C772.32 29.3615 772.682 29.456 773.13 29.456C773.617 29.456 774.007 29.3549 774.298 29.1527C774.59 28.9472 774.736 28.697 774.736 28.402C774.736 28.1634 774.646 27.9628 774.467 27.8004C774.292 27.638 774.021 27.5154 773.657 27.4325L772.364 27.1491C771.652 26.9867 771.125 26.7282 770.783 26.3736C770.445 26.0189 770.276 25.5698 770.276 25.0263C770.276 24.5755 770.402 24.1811 770.654 23.843C770.906 23.505 771.254 23.2415 771.698 23.0526C772.142 22.8603 772.651 22.7642 773.224 22.7642C774.05 22.7642 774.699 22.9432 775.173 23.3011C775.647 23.6558 775.96 24.1314 776.113 24.728Z" fill="#40464C"/>
<path d="M794.417 22.1893V31.625C794.417 31.8321 794.585 32 794.792 32H796.542C796.749 32 796.917 31.8321 796.917 31.625V22.1893H798.356C799.024 22.1893 799.359 21.3815 798.886 20.909L796.197 18.2196C795.904 17.9267 795.429 17.9267 795.136 18.2196L792.447 20.909C791.975 21.3815 792.309 22.1893 792.977 22.1893H794.417Z" fill="#40464C"/>
<line x1="691.667" y1="49.35" x2="983.667" y2="49.35" stroke="#D5DBE1" stroke-width="1.3"/>
<path d="M1014.27 17.838H1009.31C1008.94 17.8381 1008.58 17.9857 1008.32 18.2484L1002.08 24.4849C1001.82 24.7475 1001.67 25.1037 1001.67 25.475C1001.67 25.8464 1001.82 26.2026 1002.08 26.4652L1007.04 31.4273C1007.31 31.6898 1007.66 31.8373 1008.03 31.8373C1008.41 31.8373 1008.76 31.6898 1009.02 31.4273L1015.26 25.1907C1015.52 24.9288 1015.67 24.5724 1015.67 24.2013V19.2385C1015.67 18.8671 1015.52 18.5109 1015.26 18.2482C1015 17.9856 1014.64 17.838 1014.27 17.838ZM1012.18 22.7349C1011.99 22.7391 1011.8 22.7061 1011.63 22.6376C1011.46 22.5692 1011.3 22.4667 1011.16 22.3363C1011.03 22.2059 1010.93 22.0502 1010.85 21.8783C1010.78 21.7063 1010.74 21.5217 1010.74 21.3351C1010.74 21.1486 1010.78 20.9639 1010.85 20.7919C1010.92 20.6199 1011.03 20.4642 1011.16 20.3337C1011.3 20.2032 1011.46 20.1007 1011.63 20.0322C1011.8 19.9636 1011.99 19.9305 1012.17 19.9346C1012.54 19.9427 1012.89 20.0937 1013.14 20.3553C1013.4 20.617 1013.54 20.9684 1013.54 21.3344C1013.54 21.7004 1013.4 22.0519 1013.15 22.3137C1012.89 22.5755 1012.54 22.7267 1012.18 22.7349Z" fill="#40464C"/>
<path d="M1026.45 30V19.8182H1030.08C1030.87 19.8182 1031.53 19.9624 1032.05 20.2507C1032.57 20.5391 1032.96 20.9335 1033.22 21.4339C1033.48 21.9311 1033.61 22.4912 1033.61 23.1143C1033.61 23.7408 1033.48 24.3042 1033.21 24.8047C1032.95 25.3018 1032.56 25.6963 1032.04 25.9879C1031.52 26.2763 1030.86 26.4205 1030.08 26.4205H1027.58V25.1179H1029.94C1030.44 25.1179 1030.84 25.0317 1031.15 24.8594C1031.47 24.6837 1031.7 24.4451 1031.84 24.1435C1031.99 23.8419 1032.06 23.4988 1032.06 23.1143C1032.06 22.7299 1031.99 22.3885 1031.84 22.0902C1031.7 21.7919 1031.46 21.5582 1031.15 21.3892C1030.84 21.2202 1030.43 21.1357 1029.92 21.1357H1027.99V30H1026.45ZM1036.77 25.4659V30H1035.29V19.8182H1036.75V23.6065H1036.85C1037.03 23.1955 1037.3 22.8691 1037.67 22.6271C1038.04 22.3852 1038.52 22.2642 1039.11 22.2642C1039.63 22.2642 1040.09 22.3719 1040.48 22.5874C1040.88 22.8028 1041.18 23.1243 1041.4 23.5518C1041.62 23.9761 1041.73 24.5064 1041.73 25.1428V30H1040.24V25.3217C1040.24 24.7616 1040.1 24.3274 1039.81 24.0192C1039.52 23.7076 1039.12 23.5518 1038.6 23.5518C1038.25 23.5518 1037.94 23.6264 1037.66 23.7756C1037.38 23.9247 1037.17 24.1435 1037.01 24.4318C1036.85 24.7169 1036.77 25.0616 1036.77 25.4659ZM1046.93 30.1541C1046.21 30.1541 1045.59 29.9901 1045.05 29.6619C1044.52 29.3338 1044.1 28.8748 1043.81 28.2848C1043.51 27.6948 1043.37 27.0054 1043.37 26.2166C1043.37 25.4245 1043.51 24.7318 1043.81 24.1385C1044.1 23.5452 1044.52 23.0845 1045.05 22.7564C1045.59 22.4283 1046.21 22.2642 1046.93 22.2642C1047.64 22.2642 1048.27 22.4283 1048.8 22.7564C1049.33 23.0845 1049.75 23.5452 1050.04 24.1385C1050.34 24.7318 1050.49 25.4245 1050.49 26.2166C1050.49 27.0054 1050.34 27.6948 1050.04 28.2848C1049.75 28.8748 1049.33 29.3338 1048.8 29.6619C1048.27 29.9901 1047.64 30.1541 1046.93 30.1541ZM1046.93 28.9062C1047.4 28.9062 1047.78 28.7836 1048.08 28.5384C1048.39 28.2931 1048.61 27.9666 1048.76 27.5589C1048.91 27.1513 1048.98 26.7022 1048.98 26.2116C1048.98 25.7244 1048.91 25.277 1048.76 24.8693C1048.61 24.4583 1048.39 24.1286 1048.08 23.88C1047.78 23.6314 1047.4 23.5071 1046.93 23.5071C1046.46 23.5071 1046.08 23.6314 1045.77 23.88C1045.46 24.1286 1045.24 24.4583 1045.09 24.8693C1044.94 25.277 1044.87 25.7244 1044.87 26.2116C1044.87 26.7022 1044.94 27.1513 1045.09 27.5589C1045.24 27.9666 1045.46 28.2931 1045.77 28.5384C1046.08 28.7836 1046.46 28.9062 1046.93 28.9062ZM1053.63 25.4659V30H1052.15V22.3636H1053.57V23.6065H1053.67C1053.84 23.2022 1054.12 22.8774 1054.49 22.6321C1054.87 22.3868 1055.35 22.2642 1055.92 22.2642C1056.44 22.2642 1056.89 22.3736 1057.29 22.5923C1057.68 22.8078 1057.98 23.1293 1058.2 23.5568C1058.41 23.9844 1058.52 24.513 1058.52 25.1428V30H1057.03V25.3217C1057.03 24.7682 1056.89 24.3357 1056.6 24.0241C1056.31 23.7093 1055.92 23.5518 1055.41 23.5518C1055.07 23.5518 1054.76 23.6264 1054.49 23.7756C1054.23 23.9247 1054.02 24.1435 1053.86 24.4318C1053.71 24.7169 1053.63 25.0616 1053.63 25.4659ZM1063.8 30.1541C1063.05 30.1541 1062.4 29.9934 1061.86 29.6719C1061.32 29.3471 1060.9 28.8913 1060.61 28.3047C1060.32 27.7147 1060.17 27.0237 1060.17 26.2315C1060.17 25.4493 1060.32 24.7599 1060.61 24.1634C1060.9 23.5668 1061.31 23.1011 1061.84 22.7663C1062.37 22.4316 1062.99 22.2642 1063.7 22.2642C1064.13 22.2642 1064.55 22.3355 1064.95 22.478C1065.36 22.6205 1065.72 22.8442 1066.04 23.1491C1066.36 23.4541 1066.62 23.8501 1066.8 24.3374C1066.99 24.8213 1067.08 25.4096 1067.08 26.1023V26.6293H1061.01V25.5156H1065.62C1065.62 25.1245 1065.54 24.7782 1065.38 24.4766C1065.23 24.1716 1065 23.9313 1064.71 23.7557C1064.43 23.58 1064.09 23.4922 1063.71 23.4922C1063.29 23.4922 1062.93 23.5949 1062.62 23.8004C1062.31 24.0026 1062.07 24.2678 1061.9 24.5959C1061.73 24.9207 1061.65 25.2737 1061.65 25.6548V26.5249C1061.65 27.0353 1061.74 27.4695 1061.92 27.8274C1062.1 28.1854 1062.36 28.4588 1062.68 28.6477C1063 28.8333 1063.38 28.9261 1063.82 28.9261C1064.1 28.9261 1064.36 28.8864 1064.59 28.8068C1064.82 28.724 1065.02 28.6013 1065.19 28.4389C1065.36 28.2765 1065.49 28.076 1065.58 27.8374L1066.99 28.0909C1066.87 28.5052 1066.67 28.8681 1066.38 29.1797C1066.09 29.4879 1065.73 29.7282 1065.29 29.9006C1064.86 30.0696 1064.36 30.1541 1063.8 30.1541Z" fill="#40464C"/>
<line x1="983.333" y1="49.35" x2="1275.33" y2="49.35" stroke="#D5DBE1" stroke-width="1.3"/>
<line x1="1275" y1="49.35" x2="1340" y2="49.35" stroke="#D5DBE1" stroke-width="1.3"/>
<defs>
<clipPath id="clip0_1368_707">
<rect width="16" height="16" fill="white" transform="translate(17 16.5)"/>
</clipPath>
<clipPath id="clip1_1368_707">
<rect width="16" height="16" fill="white" transform="translate(417 16.5)"/>
</clipPath>
<clipPath id="clip2_1368_707">
<rect width="16" height="16" fill="white" transform="translate(708.667 17)"/>
</clipPath>
</defs>
</svg>
